# xmcd CD database file
#
# Track frame offsets:
#	150
#	30218
#	55081
#	76104
#	101247
#	126635
#	153326
#	174654
#
# Disc length: 2605 seconds
#
# Revision: 0
# Processed by: cddbd v1.5.2PL0 Copyright (c) Steve Scherf et al.
# Submitted via: CDex 1.51
#
DISCID=5d0a2b08
DTITLE=Russ Freeman - Nocturnal Playground
DYEAR=1985
DGENRE=Jazz
TTITLE0=Nocturnal Playground
TTITLE1=Polo in the Palisades
TTITLE2=What She Really Wants
TTITLE3=Jamaican Nights
TTITLE4=Easter Island
TTITLE5=Moving Violation
TTITLE6=Amelia
TTITLE7=Paradise Cove
EXTD=YEAR: 1985
EXTT0=
EXTT1=
EXTT2=
EXTT3=
EXTT4=
EXTT5=
EXTT6=
EXTT7=
PLAYORDER=
